<?xml version="1.0" encoding="UTF-8" standalone="no"?>
<svg
   xmlns:dc="http://purl.org/dc/elements/1.1/"
   xmlns:cc="http://creativecommons.org/ns#"
   xmlns:rdf="http://www.w3.org/1999/02/22-rdf-syntax-ns#"
   xmlns:svg="http://www.w3.org/2000/svg"
   xmlns="http://www.w3.org/2000/svg"
   xmlns:sodipodi="http://sodipodi.sourceforge.net/DTD/sodipodi-0.dtd"
   xmlns:inkscape="http://www.inkscape.org/namespaces/inkscape"
   width="69.852mm"
   height="82.547mm"
   viewBox="547.573730 -473.773468 69.852478 82.546967"
   id="svg3047"
   version="1.1"
   inkscape:version="0.48.5 r10040"
   sodipodi:docname="BlinkIndoor2.svg">
  <metadata
     id="metadata3065">
    <rdf:RDF>
      <cc:Work
         rdf:about="">
        <dc:format>image/svg+xml</dc:format>
        <dc:type
           rdf:resource="http://purl.org/dc/dcmitype/StillImage" />
        <dc:title></dc:title>
      </cc:Work>
    </rdf:RDF>
  </metadata>
  <defs
     id="defs3063" />
  <sodipodi:namedview
     pagecolor="#ffffff"
     bordercolor="#666666"
     borderopacity="1"
     objecttolerance="10"
     gridtolerance="10"
     guidetolerance="10"
     inkscape:pageopacity="0"
     inkscape:pageshadow="2"
     inkscape:window-width="1280"
     inkscape:window-height="961"
     id="namedview3061"
     showgrid="true"
     inkscape:zoom="2.538225"
     inkscape:cx="76.673477"
     inkscape:cy="146.24624"
     inkscape:window-x="-8"
     inkscape:window-y="-8"
     inkscape:window-maximized="1"
     inkscape:current-layer="svg3047">
    <inkscape:grid
       type="xygrid"
       id="grid3069" />
  </sodipodi:namedview>
  <circle
     transform="translate(553.860718,-400.151581)"
     style="stroke:#0000ff;stroke-width:0.05mm;fill:none"
     r="1.750012"
     cx="0"
     cy="0"
     id="circle3049" />
  <circle
     transform="matrix(-1,0,0,-1,611.140991,-400.151581)"
     style="stroke:#0000ff;stroke-width:0.05mm;fill:none"
     r="1.750012"
     cx="0"
     cy="0"
     id="circle3051" />
  <path
     transform="matrix(1,0,0,-1,467.7453,-519.690063)"
     style="stroke:#000000;stroke-width:0.05mm;fill:none"
     d="M114.698051,-45.916588C105.982109,-45.834068,97.586678,-51.495903,94.395966,-59.607224C92.882324,-63.126766,92.642654,-66.926758,92.766098,-70.688721L92.766098,-106.776474L95.110649,-106.776474L95.110649,-110.610893L79.828461,-110.610893L79.828461,-128.463577L149.680923,-128.463577L149.680923,-110.610886L134.398651,-110.610886L134.398651,-106.776466L136.765945,-106.776466C136.74614,-93.453163,136.805344,-80.05043,136.73645,-66.776291C136.393997,-58.066704,130.330505,-49.957115,122.073273,-47.165604C119.710144,-46.332508,117.203659,-45.908218,114.698013,-45.916584L114.698051,-45.916588z"
     id="path3053" />
  <path
     style="fill:none;stroke:#0000ff;stroke-width:0.06397512mm"
     d="m 576.96885,-412.88883 11.06228,0 0,3.7849 -11.06228,0 0,-3.7849 z"
     id="path3055"
     inkscape:connector-curvature="0" />
  <circle
     transform="matrix(1.0772868,0,0,1.0772868,565.99988,-452.01078)"
     style="fill:none;stroke:#0000ff;stroke-width:0.05mm"
     r="2.0000119"
     cx="0"
     cy="0"
     id="circle3057"
     sodipodi:cx="0"
     sodipodi:cy="0"
     sodipodi:rx="2.0000119"
     sodipodi:ry="2.0000119" />
  <circle
     transform="matrix(1.0772868,0,0,1.0772868,599.00011,-452.01079)"
     style="fill:none;stroke:#0000ff;stroke-width:0.05mm"
     r="2.0000119"
     cx="0"
     cy="0"
     id="circle3059"
     sodipodi:cx="0"
     sodipodi:cy="0"
     sodipodi:rx="2.0000119"
     sodipodi:ry="2.0000119" />
</svg>
